STARTFONT 2.1
COMMENT Exported by Fony v1.4.7
FONT Untitled
SIZE 16 96 96
FONTBOUNDINGBOX 16 15 0 0
STARTPROPERTIES 6
COPYRIGHT "Unknown (Imported by Fony)"
RESOLUTION_X 96
RESOLUTION_Y 96
FONT_ASCENT 16
FONT_DESCENT 0
DEFAULT_CHAR 0
ENDPROPERTIES
CHARS 256
STARTCHAR 000
ENCODING 0
SWIDTH 72 0
DWIDTH 1 0
BBX 0 0 0 0
BITMAP
ENDCHAR
STARTCHAR 001
ENCODING 1
SWIDTH 1152 0
DWIDTH 16 0
BBX 16 16 0 0
BITMAP
FFFF
FFFF
C631
C631
C631
FFFF
FFFF
C631
C631
C631
FFFF
FFFF
C631
C631
C631
FFFF
ENDCHAR
STARTCHAR 002
ENCODING 2
SWIDTH 1152 0
DWIDTH 16 0
BBX 16 16 0 0
BITMAP
FFFF
8421
8421
8421
8421
FFFF
8421
8421
8421
8421
FFFF
8421
8421
8421
8421
FFFF
ENDCHAR
STARTCHAR 003
ENCODING 3
SWIDTH 1152 0
DWIDTH 16 0
BBX 16 15 0 0
BITMAP
1000
9200
5400
3800
1000
1000
1003
1003
1033
1033
1033
1333
1333
1333
1333
ENDCHAR
STARTCHAR 004
ENCODING 4
SWIDTH 1152 0
DWIDTH 16 0
BBX 15 15 1 0
BITMAP
3FF8
3FF8
3FF8
0000
0000
0000
FFFE
FFFE
FFFE
0000
0000
0000
1FF0
1FF0
1FF0
ENDCHAR
STARTCHAR 005
ENCODING 5
SWIDTH 1152 0
DWIDTH 16 0
BBX 15 15 1 0
BITMAP
FFFE
FFFE
FFFE
0000
0000
0000
FFFE
FFFE
FFFE
0000
0000
0000
FFFE
FFFE
FFFE
ENDCHAR
STARTCHAR 006
ENCODING 6
SWIDTH 1152 0
DWIDTH 16 0
BBX 15 15 1 0
BITMAP
FFE0
FFE0
FFE0
0000
0000
0000
FFFE
FFFE
FFFE
0000
0000
0000
FF80
FF80
FF80
ENDCHAR
STARTCHAR 007
ENCODING 7
SWIDTH 1152 0
DWIDTH 16 0
BBX 15 15 1 0
BITMAP
0FFE
0FFE
0FFE
0000
0000
0000
FFFE
FFFE
FFFE
0000
0000
0000
03FE
03FE
03FE
ENDCHAR
STARTCHAR 008
ENCODING 8
SWIDTH 1152 0
DWIDTH 16 0
BBX 16 15 0 0
BITMAP
FFFF
FFF5
FFFF
8001
8001
8001
8001
8001
8001
8001
8001
8001
8001
8001
FFFF
ENDCHAR
STARTCHAR 009
ENCODING 9
SWIDTH 1152 0
DWIDTH 16 0
BBX 16 15 0 0
BITMAP
FFFF
FFF5
FFFF
8001
BFFD
BFFD
BFFD
BFFD
BFFD
BFFD
BFFD
BFFD
BFFD
8001
FFFF
ENDCHAR
STARTCHAR 010
ENCODING 10
SWIDTH 1152 0
DWIDTH 16 0
BBX 16 15 0 0
BITMAP
7FFE
FFF3
FFF3
FFFF
C003
DFFB
DFFB
DFFB
DFFB
DFFB
DFFB
DFFB
C003
FFFF
7FFE
ENDCHAR
STARTCHAR 011
ENCODING 11
SWIDTH 1152 0
DWIDTH 16 0
BBX 16 15 0 0
BITMAP
FFFF
FFEB
FFFF
8001
8001
8421
8E71
87E1
83C1
87E1
8E71
8421
8001
8001
FFFF
ENDCHAR
STARTCHAR 012
ENCODING 12
SWIDTH 1152 0
DWIDTH 16 0
BBX 16 15 0 0
BITMAP
7FFE
FFF3
FFF3
FFFF
C003
C423
CE73
C7E3
C3C3
C7E3
CE73
C423
C003
FFFF
7FFE
ENDCHAR
STARTCHAR 013
ENCODING 13
SWIDTH 1152 0
DWIDTH 16 0
BBX 16 15 0 0
BITMAP
7FFE
EDB3
FFF3
B6DF
C003
C003
C003
C003
C003
C003
C003
C003
C003
FFFF
7FFE
ENDCHAR
STARTCHAR 014
ENCODING 14
SWIDTH 1152 0
DWIDTH 16 0
BBX 16 15 0 0
BITMAP
FFFF
FFEB
FFFF
8001
8801
9C01
9001
9C01
8401
9C01
89E1
8001
8001
8001
FFFF
ENDCHAR
STARTCHAR 015
ENCODING 15
SWIDTH 1152 0
DWIDTH 16 0
BBX 16 15 0 0
BITMAP
7FFE
FFF3
FFF3
FFFF
C403
CE03
C803
CE03
C203
CE03
C4F3
C003
C003
FFFF
7FFE
ENDCHAR
STARTCHAR 016
ENCODING 16
SWIDTH 1152 0
DWIDTH 16 0
BBX 13 16 2 0
BITMAP
0F80
0F80
0F80
0F80
0F80
0F80
0F80
0F80
0F80
FFF8
7FF0
3FE0
1FC0
0F80
0700
0200
ENDCHAR
STARTCHAR 017
ENCODING 17
SWIDTH 1152 0
DWIDTH 16 0
BBX 13 13 1 1
BITMAP
0040
00E0
01F0
03F8
C7F0
EFE0
FFC0
FF80
FF00
FE00
FF00
FF80
FF80
ENDCHAR
STARTCHAR 018
ENCODING 18
SWIDTH 1152 0
DWIDTH 16 0
BBX 13 13 2 1
BITMAP
1000
3800
7C00
FE00
7F18
3FB8
1FF8
0FF8
07F8
03F8
07F8
0FF8
0FF8
ENDCHAR
STARTCHAR 019
ENCODING 19
SWIDTH 1152 0
DWIDTH 16 0
BBX 16 13 0 1
BITMAP
0200
0600
0E00
1E00
3FFF
7FFF
FFFF
7FFF
3FFF
1E00
0E00
0600
0200
ENDCHAR
STARTCHAR 020
ENCODING 20
SWIDTH 1152 0
DWIDTH 16 0
BBX 16 9 0 3
BITMAP
0FFF
1FFF
3FFF
7FFF
FFFF
7FFF
3FFF
1FFF
0FFF
ENDCHAR
STARTCHAR 021
ENCODING 21
SWIDTH 1152 0
DWIDTH 16 0
BBX 15 9 0 3
BITMAP
FFF0
FFF8
FFFC
FFFE
FFFE
FFFE
FFFC
FFF8
FFF0
ENDCHAR
STARTCHAR 022
ENCODING 22
SWIDTH 1152 0
DWIDTH 16 0
BBX 16 13 0 1
BITMAP
0040
0060
0070
0078
FFFC
FFFE
FFFF
FFFE
FFFC
0078
0070
0060
0040
ENDCHAR
STARTCHAR 023
ENCODING 23
SWIDTH 1152 0
DWIDTH 16 0
BBX 13 16 2 0
BITMAP
0200
0700
0F80
1FC0
3FE0
7FF0
FFF8
0F80
0F80
0F80
0F80
0F80
0F80
0F80
0F80
0F80
ENDCHAR
STARTCHAR 024
ENCODING 24
SWIDTH 1152 0
DWIDTH 16 0
BBX 13 13 1 2
BITMAP
FF80
FF00
FE00
FE00
FF00
FF80
FFC0
CFE0
87F0
03F8
01F0
00E0
0040
ENDCHAR
STARTCHAR 025
ENCODING 25
SWIDTH 1152 0
DWIDTH 16 0
BBX 13 13 2 2
BITMAP
0FF8
0FF8
07F8
03F8
07F8
0FF8
1FF8
3FB8
7F18
FE00
7C00
3800
1000
ENDCHAR
STARTCHAR 026
ENCODING 26
SWIDTH 1152 0
DWIDTH 16 0
BBX 14 9 1 3
BITMAP
0840
1860
3870
7FF8
FFFC
7FF8
3870
1860
0840
ENDCHAR
STARTCHAR 027
ENCODING 27
SWIDTH 1152 0
DWIDTH 16 0
BBX 16 7 0 5
BITMAP
1008
300C
7FFE
FFFF
7FFE
300C
1008
ENDCHAR
STARTCHAR 028
ENCODING 28
SWIDTH 1152 0
DWIDTH 16 0
BBX 16 13 0 1
BITMAP
0180
03C0
03C0
0660
0420
0C30
0C30
1E78
3E7C
3FFC
7E7E
7E7E
FFFF
ENDCHAR
STARTCHAR 029
ENCODING 29
SWIDTH 1152 0
DWIDTH 16 0
BBX 15 15 0 0
BITMAP
0100
3FF8
3118
3118
4924
4924
8542
8542
8542
FD7E
FD7E
793C
0100
07C0
07C0
ENDCHAR
STARTCHAR 030
ENCODING 30
SWIDTH 1152 0
DWIDTH 16 0
BBX 16 9 0 3
BITMAP
3FFF
3E49
FE49
FE49
FE49
FE49
FE49
3E49
3FFF
ENDCHAR
STARTCHAR 031
ENCODING 31
SWIDTH 1152 0
DWIDTH 16 0
BBX 14 15 1 0
BITMAP
0300
0780
0FC0
0FC0
0FC0
1FE0
1FE0
3FF0
7FF8
FFFC
FFFC
FFFC
E01C
7FF8
0300
ENDCHAR
STARTCHAR 032
ENCODING 32
SWIDTH 1152 0
DWIDTH 16 0
BBX 15 14 1 0
BITMAP
1C70
FFFE
FFFE
FFFE
FFFE
FFFE
FFFE
FFFE
FFFE
FFFE
FFFE
FFFE
E38E
0100
ENDCHAR
STARTCHAR 033
ENCODING 33
SWIDTH 1152 0
DWIDTH 16 0
BBX 8 15 4 0
BITMAP
7F
FE
FE
FE
FE
FE
FE
FE
FE
FE
FE
FE
EE
C6
82
ENDCHAR
STARTCHAR 034
ENCODING 34
SWIDTH 1152 0
DWIDTH 16 0
BBX 15 16 1 0
BITMAP
707C
E0FE
E0FE
E0FE
E0FE
E0FE
E0FE
E0FE
E0FE
E4FE
EEFE
FFFE
FFFE
FFFE
FFFE
7FFC
ENDCHAR
STARTCHAR 035
ENCODING 35
SWIDTH 1152 0
DWIDTH 16 0
BBX 12 16 2 0
BITMAP
7FF0
FFF0
FFF0
FFF0
FFF0
FFF0
FFF0
FFF0
FFF0
FFF0
FFF0
FFF0
C000
9FF0
C000
7FF0
ENDCHAR
STARTCHAR 036
ENCODING 36
SWIDTH 1152 0
DWIDTH 16 0
BBX 15 15 1 0
BITMAP
0380
1FF0
3FF8
CFE6
F39E
FD7E
FEFE
FEFE
FEFE
FEFE
FEFE
FEFE
7EF8
0EE0
0280
ENDCHAR
STARTCHAR 037
ENCODING 37
SWIDTH 1152 0
DWIDTH 16 0
BBX 16 12 0 2
BITMAP
0420
0E70
1838
381C
700E
E007
E007
700E
381C
1C38
0E70
0420
ENDCHAR
STARTCHAR 038
ENCODING 38
SWIDTH 1152 0
DWIDTH 16 0
BBX 14 9 1 3
BITMAP
C00C
E01C
F03C
7878
3CF0
1FE0
0FC0
0780
0300
ENDCHAR
STARTCHAR 039
ENCODING 39
SWIDTH 1152 0
DWIDTH 16 0
BBX 9 16 5 0
BITMAP
4000
E000
F000
7800
3C00
1E00
0F00
0780
0780
0F00
1C00
3C00
7800
F000
E000
4000
ENDCHAR
STARTCHAR 040
ENCODING 40
SWIDTH 1152 0
DWIDTH 16 0
BBX 15 15 1 0
BITMAP
7FFC
FFE6
FFE6
FFFE
C006
C386
CFE6
C926
CFE6
C926
CFE6
C386
C006
FFFE
7FFC
ENDCHAR
STARTCHAR 041
ENCODING 41
SWIDTH 1152 0
DWIDTH 16 0
BBX 9 16 3 0
BITMAP
0100
0380
0700
0E00
1C00
3800
7800
F000
F000
7800
3C00
1E00
0F00
0780
0380
0100
ENDCHAR
STARTCHAR 042
ENCODING 42
SWIDTH 1152 0
DWIDTH 16 0
BBX 16 9 0 4
BITMAP
0180
03C0
07E0
0FF0
1E78
3C3C
781E
F00F
6006
ENDCHAR
STARTCHAR 043
ENCODING 43
SWIDTH 1152 0
DWIDTH 16 0
BBX 16 16 0 0
BITMAP
0003
0007
000E
03BC
07F8
0BF0
1DF0
2EF8
5B78
B7B0
6DD0
5B60
36C0
0D80
0B00
0600
ENDCHAR
STARTCHAR 044
ENCODING 44
SWIDTH 1152 0
DWIDTH 16 0
BBX 15 16 1 0
BITMAP
0C60
1830
1FF0
1FF0
0FE0
CFE6
701C
1FF0
1EF0
1EF0
7EFC
DEF6
1EF0
1EF0
2EE8
46C4
ENDCHAR
STARTCHAR 045
ENCODING 45
SWIDTH 1152 0
DWIDTH 16 0
BBX 15 15 1 0
BITMAP
0100
0380
3398
3FF8
1FF0
1FF0
7FFC
FFFE
7FFC
1FF0
1FF0
3FF8
3398
0380
0100
ENDCHAR
STARTCHAR 046
ENCODING 46
SWIDTH 1152 0
DWIDTH 16 0
BBX 12 16 2 0
BITMAP
7FE0
FFF0
C030
C030
FFF0
FFF0
C930
C930
FFF0
C930
C930
FFF0
C930
C930
FFF0
7FE0
ENDCHAR
STARTCHAR 047
ENCODING 47
SWIDTH 1152 0
DWIDTH 16 0
BBX 16 16 0 0
BITMAP
381C
2814
6FF6
FFFF
FFFF
C003
FFFF
C003
C6E3
C223
C2E3
C283
C7E3
C003
FFFF
7FFE
ENDCHAR
STARTCHAR 048
ENCODING 48
SWIDTH 1152 0
DWIDTH 16 0
BBX 15 16 1 0
BITMAP
3838
2828
6FEC
FFFE
8002
8002
86DA
86DA
8002
B6DA
B6DA
8002
B6C2
B6C2
8002
FFFE
ENDCHAR
STARTCHAR 049
ENCODING 49
SWIDTH 1152 0
DWIDTH 16 0
BBX 16 16 0 0
BITMAP
07E0
1FF0
381C
703E
607A
C0F3
C1E3
C3C3
C783
CF03
DE03
7C06
780E
301C
1FF8
07E0
ENDCHAR
STARTCHAR 050
ENCODING 50
SWIDTH 1152 0
DWIDTH 16 0
BBX 16 16 0 0
BITMAP
0FF0
0FF0
0C30
0C30
7FFE
FFFF
C0FF
DFFF
DFFF
DFFF
FFFF
FFFF
FFFF
FFFF
FFFF
7FFE
ENDCHAR
STARTCHAR 051
ENCODING 51
SWIDTH 1152 0
DWIDTH 16 0
BBX 16 12 0 2
BITMAP
FFFF
FFFF
FFFF
C3C3
9999
BDBD
BDBD
9999
C003
FFFF
FFFF
FFFF
ENDCHAR
STARTCHAR 052
ENCODING 52
SWIDTH 1152 0
DWIDTH 16 0
BBX 16 12 0 2
BITMAP
7FFE
FFFF
C003
C003
FFFF
FFFF
C003
C003
C003
C003
FFFF
7FFE
ENDCHAR
STARTCHAR 053
ENCODING 53
SWIDTH 1152 0
DWIDTH 16 0
BBX 12 16 2 0
BITMAP
1980
1F80
3FC0
F9F0
F0F0
6060
6060
F0F0
F9F0
3FC0
3FC0
3FC0
3DC0
7DE0
79E0
F0F0
ENDCHAR
STARTCHAR 054
ENCODING 54
SWIDTH 1152 0
DWIDTH 16 0
BBX 15 15 1 0
BITMAP
FFFE
FFFE
FF3E
FF3E
FF3E
FF26
FF26
F926
F926
C926
C926
C926
C926
FFFE
FFFE
ENDCHAR
STARTCHAR 055
ENCODING 55
SWIDTH 1152 0
DWIDTH 16 0
BBX 15 15 1 0
BITMAP
FFFE
FFFA
FFF6
FBEE
F5DE
EEBE
DF7E
BFFE
FBFE
F5F2
F6CE
EF3E
DFFE
FFFE
FFFE
ENDCHAR
STARTCHAR 056
ENCODING 56
SWIDTH 1152 0
DWIDTH 16 0
BBX 15 15 1 0
BITMAP
FFFE
FFF2
FFF6
FBEE
F1DE
EE3E
DF7E
9FFE
FBFA
F1F2
F6CE
CF3E
DFFE
FFFE
FFFE
ENDCHAR
STARTCHAR 057
ENCODING 57
SWIDTH 1152 0
DWIDTH 16 0
BBX 16 16 0 0
BITMAP
07E0
1C78
306C
6066
70CE
F8DF
DFFB
C7E3
C3C3
C183
E187
6186
718E
3DBC
1FF8
07E0
ENDCHAR
STARTCHAR 058
ENCODING 58
SWIDTH 1152 0
DWIDTH 16 0
BBX 16 16 0 0
BITMAP
FFFF
FFFF
FFFF
FFFF
FFFF
FFFF
FFFF
FFFF
FFFF
FFFF
FFFF
FFFF
007C
003C
000C
0004
ENDCHAR
STARTCHAR 059
ENCODING 59
SWIDTH 1152 0
DWIDTH 16 0
BBX 15 15 1 0
BITMAP
7F80
FF0C
C01E
C03E
C47C
CEF8
DFF0
CFE2
C7C6
C386
C106
C006
E00E
FFFE
7FFC
ENDCHAR
STARTCHAR 060
ENCODING 60
SWIDTH 1152 0
DWIDTH 16 0
BBX 15 15 1 0
BITMAP
7FFC
FFFE
E00E
C006
C006
C006
C006
C006
C006
C006
C006
C006
E00E
FFFE
7FFC
ENDCHAR
STARTCHAR 061
ENCODING 61
SWIDTH 1152 0
DWIDTH 16 0
BBX 15 14 1 1
BITMAP
0004
000E
001E
003E
007E
30FC
79F8
FFF0
FFE0
7FC0
3F80
1F00
0F00
0600
ENDCHAR
STARTCHAR 062
ENCODING 62
SWIDTH 1152 0
DWIDTH 16 0
BBX 15 16 1 0
BITMAP
FE00
FB00
FB80
F9C0
F800
FBF0
FBD8
FBDC
FBDE
FBC2
FBFE
03FE
03FE
03FE
03FE
03FE
ENDCHAR
STARTCHAR 063
ENCODING 63
SWIDTH 1152 0
DWIDTH 16 0
BBX 16 15 0 0
BITMAP
4002
6006
700E
381C
3C3C
1E78
1F70
0FF0
07E0
7B9E
CEF3
8661
8421
CC33
781E
ENDCHAR
STARTCHAR 064
ENCODING 64
SWIDTH 1152 0
DWIDTH 16 0
BBX 16 16 0 0
BITMAP
0400
0E00
FFE0
BFA0
8000
81F8
81EC
81EE
81EF
81E1
81FF
81FF
81FF
FDFF
01FF
01FF
ENDCHAR
STARTCHAR 065
ENCODING 65
SWIDTH 1152 0
DWIDTH 16 0
BBX 9 16 4 0
BITMAP
3E00
4300
C080
8080
9C80
B680
A280
A280
A280
A280
A280
A280
2080
2080
1100
1E00
ENDCHAR
STARTCHAR 066
ENCODING 66
SWIDTH 1152 0
DWIDTH 16 0
BBX 15 15 1 0
BITMAP
07C0
1EF0
3FF8
7EFC
7EFC
FEFE
FEFE
BEFA
FF7E
FFBE
7FDC
7FFC
3FF8
1EF0
07C0
ENDCHAR
STARTCHAR 067
ENCODING 67
SWIDTH 1152 0
DWIDTH 16 0
BBX 16 11 0 2
BITMAP
00E0
01F8
1DF8
3FF8
3FFE
7FFF
FFFF
FFFF
FFFF
FFFF
FFFF
ENDCHAR
STARTCHAR 068
ENCODING 68
SWIDTH 1152 0
DWIDTH 16 0
BBX 16 15 0 0
BITMAP
00E0
01F8
1DF8
3FF8
3FFE
7FFF
FFFF
FFFF
FFFF
D555
AAAA
AAAA
5554
AAA8
AAA8
ENDCHAR
STARTCHAR 069
ENCODING 69
SWIDTH 1152 0
DWIDTH 16 0
BBX 15 16 1 0
BITMAP
0C00
1800
0E00
0300
0200
0400
FFE0
FFFC
FFE6
FFE6
FFE2
FFE6
7FFC
7FF8
7FC0
3F80
ENDCHAR
STARTCHAR 070
ENCODING 70
SWIDTH 1152 0
DWIDTH 16 0
BBX 16 16 0 0
BITMAP
0C30
0E70
0FF0
CE73
F81F
F18F
73CE
2664
2664
73CE
F18F
F81F
CE73
0FF0
0E70
0C30
ENDCHAR
STARTCHAR 071
ENCODING 71
SWIDTH 1152 0
DWIDTH 16 0
BBX 16 16 0 0
BITMAP
1800
7E00
7E00
E700
E700
7ED8
7ED8
19F8
078F
0727
0174
0727
078F
00F8
00D8
00D8
ENDCHAR
STARTCHAR 072
ENCODING 72
SWIDTH 1152 0
DWIDTH 16 0
BBX 15 15 1 0
BITMAP
07C0
1EF0
3EF8
7EFC
FC7E
FC7E
F93E
FBBE
F93E
FC7E
7C7C
7EFC
3EF8
1EF0
0FE0
ENDCHAR
STARTCHAR 073
ENCODING 73
SWIDTH 1152 0
DWIDTH 16 0
BBX 16 11 0 2
BITMAP
FFF0
FFF0
C037
C037
C035
C035
C035
FFF5
FFF5
0007
0F07
ENDCHAR
STARTCHAR 074
ENCODING 74
SWIDTH 1152 0
DWIDTH 16 0
BBX 16 16 0 0
BITMAP
0003
0007
00CE
01FC
01B8
00F8
026C
163C
3C18
3CC0
1F80
1F00
3F80
7300
E000
C000
ENDCHAR
STARTCHAR 075
ENCODING 75
SWIDTH 1152 0
DWIDTH 16 0
BBX 16 12 0 2
BITMAP
7FFE
FFFF
F1FF
F183
F1FF
FFFF
E4FF
C07F
C07F
E0FF
FFFF
7FFE
ENDCHAR
STARTCHAR 076
ENCODING 76
SWIDTH 1152 0
DWIDTH 16 0
BBX 16 13 0 2
BITMAP
7C00
FFFE
FFFF
FE7F
FC3F
FC3F
FE7F
FC3F
F81F
FFFF
FFFF
E7E7
FFFF
ENDCHAR
STARTCHAR 077
ENCODING 77
SWIDTH 1152 0
DWIDTH 16 0
BBX 15 15 1 0
BITMAP
0380
1FE0
7FFC
7FFC
0FE0
C386
F01E
FC7E
FEFE
FEFE
FEFE
FEFE
7EFC
1EF0
0280
ENDCHAR
STARTCHAR 078
ENCODING 78
SWIDTH 1152 0
DWIDTH 16 0
BBX 10 13 4 1
BITMAP
1F00
3F80
71C0
6000
6000
FF00
FF00
6000
6000
E000
C000
FF80
FF80
ENDCHAR
STARTCHAR 079
ENCODING 79
SWIDTH 1152 0
DWIDTH 16 0
BBX 10 16 3 0
BITMAP
0C00
0C00
3F80
7FC0
E0C0
E000
E000
7F00
3F80
01C0
01C0
C1C0
FF80
7F00
0C00
0C00
ENDCHAR
STARTCHAR 080
ENCODING 80
SWIDTH 1152 0
DWIDTH 16 0
BBX 10 13 3 1
BITMAP
0F80
3FC0
3840
7000
7000
FF00
0000
FF00
7000
7000
3840
3FC0
0F80
ENDCHAR
STARTCHAR 081
ENCODING 81
SWIDTH 1152 0
DWIDTH 16 0
BBX 8 15 4 0
BITMAP
C0
C0
F0
F0
FC
FC
FF
FF
F8
DC
CC
0E
0E
06
06
ENDCHAR
STARTCHAR 082
ENCODING 82
SWIDTH 1152 0
DWIDTH 16 0
BBX 15 15 1 0
BITMAP
0100
0100
0380
07C0
0100
1110
3118
FFFE
3118
1110
0100
07C0
0380
0100
0100
ENDCHAR
STARTCHAR 083
ENCODING 83
SWIDTH 1152 0
DWIDTH 16 0
BBX 15 15 1 0
BITMAP
0100
0380
07C0
0100
0100
2108
610C
FFFE
610C
2108
0100
0100
07C0
0380
0100
ENDCHAR
STARTCHAR 084
ENCODING 84
SWIDTH 1152 0
DWIDTH 16 0
BBX 13 11 2 2
BITMAP
7FC0
4930
4028
2008
E008
8018
8010
4010
6030
1020
1020
ENDCHAR
STARTCHAR 085
ENCODING 85
SWIDTH 1152 0
DWIDTH 16 0
BBX 16 16 0 0
BITMAP
0380
3A70
264E
264A
2249
1249
7009
9801
8801
C002
4002
3006
1804
080C
0408
0408
ENDCHAR
STARTCHAR 086
ENCODING 86
SWIDTH 1152 0
DWIDTH 16 0
BBX 13 15 2 0
BITMAP
0200
0700
0F80
0200
0200
0200
FFF8
0000
FFF8
0200
0200
0200
0F80
0700
0200
ENDCHAR
STARTCHAR 087
ENCODING 87
SWIDTH 1152 0
DWIDTH 16 0
BBX 15 13 1 1
BITMAP
0280
0280
0280
0280
2288
628C
FEFE
628C
2288
0280
0280
0280
0280
ENDCHAR
STARTCHAR 088
ENCODING 88
SWIDTH 1152 0
DWIDTH 16 0
BBX 9 14 4 1
BITMAP
C180
C180
6300
6300
3600
3E00
3E00
FF80
0000
FF80
1C00
1C00
1C00
1C00
ENDCHAR
STARTCHAR 089
ENCODING 89
SWIDTH 1152 0
DWIDTH 16 0
BBX 15 13 1 2
BITMAP
07C0
1EF0
3BB8
6FEC
FFFC
DFD6
FFBE
BF7A
FEFE
DEF6
7FFC
7AFC
3018
ENDCHAR
STARTCHAR 090
ENCODING 90
SWIDTH 1152 0
DWIDTH 16 0
BBX 14 15 1 0
BITMAP
1FE0
6018
8004
C00C
FFFC
7FF8
9FC4
E03C
FFFC
7FF8
9FC4
E03C
FFFC
FFFC
1FE0
ENDCHAR
STARTCHAR 091
ENCODING 91
SWIDTH 1152 0
DWIDTH 16 0
BBX 15 15 1 0
BITMAP
3018
783C
FC7E
FEFE
7FFC
3FF8
1FF0
0FE0
1FF0
3FF8
7FFC
FEFE
FC7E
783C
3018
ENDCHAR
STARTCHAR 092
ENCODING 92
SWIDTH 1152 0
DWIDTH 16 0
BBX 15 16 0 0
BITMAP
03FE
03FE
0306
0306
01FE
45E6
EEE6
7DFE
3BFE
7DFE
EEFE
45FE
03FE
0306
03FE
03FE
ENDCHAR
STARTCHAR 093
ENCODING 93
SWIDTH 1152 0
DWIDTH 16 0
BBX 16 16 0 0
BITMAP
4403
EE07
7CCE
39FC
7DF8
EEF8
447C
183C
3C18
3E00
1F00
1F80
3F80
7300
E000
C000
ENDCHAR
STARTCHAR 094
ENCODING 94
SWIDTH 1152 0
DWIDTH 16 0
BBX 12 16 2 0
BITMAP
FF80
FFC0
FFE0
FFF0
FFF0
FFF0
EF70
C630
E070
F0F0
F0F0
E070
C630
EF70
FFF0
FFF0
ENDCHAR
STARTCHAR 095
ENCODING 95
SWIDTH 1152 0
DWIDTH 16 0
BBX 16 16 0 0
BITMAP
FF1C
FF2E
FE77
FCFB
F9FD
F3FE
F7FC
E7F8
EDF0
ECE0
EFC0
EF10
E070
FFF0
FFF0
FFF0
ENDCHAR
STARTCHAR 096
ENCODING 96
SWIDTH 1152 0
DWIDTH 16 0
BBX 13 16 2 0
BITMAP
FF80
FFC0
C160
C130
C118
C1F8
C018
C018
C018
C018
C018
C018
C018
C018
FFF8
FFF8
ENDCHAR
STARTCHAR 097
ENCODING 97
SWIDTH 1152 0
DWIDTH 16 0
BBX 15 16 1 0
BITMAP
FF80
FFC0
FFE0
FFF0
FF88
FFA0
FFB0
FC38
FDFC
FDFE
FDFC
FC38
FFB0
FFA0
FF80
FFF8
ENDCHAR
STARTCHAR 098
ENCODING 98
SWIDTH 1152 0
DWIDTH 16 0
BBX 15 16 0 0
BITMAP
1FE0
1FF0
1FF8
0FFC
07FE
13FE
19FE
1CFE
FE7E
FF7E
FE7E
1CFE
19FE
13FE
07FE
1FFE
ENDCHAR
STARTCHAR 099
ENCODING 99
SWIDTH 1152 0
DWIDTH 16 0
BBX 12 16 2 0
BITMAP
FF00
FD80
FDC0
FDE0
FDF0
FE30
FFF0
C030
FFF0
C030
FFF0
C030
FFF0
C030
FFF0
FFF0
ENDCHAR
STARTCHAR 100
ENCODING 100
SWIDTH 1152 0
DWIDTH 16 0
BBX 12 16 2 0
BITMAP
FFF0
FFF0
CFF0
C830
FFF0
C030
FFF0
C030
FFF0
C030
FFF0
C030
FFF0
C1F0
FFF0
FFF0
ENDCHAR
STARTCHAR 101
ENCODING 101
SWIDTH 1152 0
DWIDTH 16 0
BBX 12 16 2 0
BITMAP
FF00
FF80
FFC0
FFE0
FFF0
FFF0
FFF0
FFF0
FFF0
C030
C030
FFF0
FFF0
FFF0
FFF0
FFF0
ENDCHAR
STARTCHAR 102
ENCODING 102
SWIDTH 1152 0
DWIDTH 16 0
BBX 12 15 2 0
BITMAP
0150
FCE0
FDB0
FCE0
FD50
FE00
FFE0
FFE0
FFE0
FFE0
FFE0
FFE0
FFE0
FFE0
FFE0
ENDCHAR
STARTCHAR 103
ENCODING 103
SWIDTH 1152 0
DWIDTH 16 0
BBX 12 16 2 0
BITMAP
FF00
FF80
FFC0
FFE0
FFF0
FFF0
F9F0
F9F0
F9F0
C030
C030
F9F0
F9F0
F9F0
FFF0
FFF0
ENDCHAR
STARTCHAR 104
ENCODING 104
SWIDTH 1152 0
DWIDTH 16 0
BBX 12 16 2 0
BITMAP
FF00
FF80
FDC0
FDE0
FCF0
FC30
FFF0
FFF0
FFF0
FFF0
FFF0
FFF0
FFF0
FFF0
FFF0
FFF0
ENDCHAR
STARTCHAR 105
ENCODING 105
SWIDTH 1152 0
DWIDTH 16 0
BBX 15 16 1 0
BITMAP
07C0
07C0
07C0
07C0
07C0
7FFC
3FF8
1FF0
0FE0
07C0
0380
0100
C006
E00E
7FFC
3FF8
ENDCHAR
STARTCHAR 106
ENCODING 106
SWIDTH 1152 0
DWIDTH 16 0
BBX 11 15 3 0
BITMAP
0400
0E00
0E00
1F00
1F00
3F80
3F80
7FC0
FFE0
FFE0
0000
0000
FFE0
FFE0
FFE0
ENDCHAR
STARTCHAR 107
ENCODING 107
SWIDTH 1152 0
DWIDTH 16 0
BBX 16 16 0 0
BITMAP
07E0
1C38
381C
700E
6006
C663
C663
C003
C003
C003
C7E3
6C36
781E
381C
1FF8
07E0
ENDCHAR
STARTCHAR 108
ENCODING 108
SWIDTH 1152 0
DWIDTH 16 0
BBX 16 16 0 0
BITMAP
07E0
1C38
301C
600E
6006
C663
C663
C003
C003
D81B
C813
6E76
73CE
381C
1FF8
07E0
ENDCHAR
STARTCHAR 109
ENCODING 109
SWIDTH 1152 0
DWIDTH 16 0
BBX 16 14 0 1
BITMAP
7FFC
FFFF
FFC3
FFF3
FFEB
FFDB
FFFF
E07F
C03F
C03F
C03F
E07F
FFFE
7FFC
ENDCHAR
STARTCHAR 110
ENCODING 110
SWIDTH 1152 0
DWIDTH 16 0
BBX 15 15 0 0
BITMAP
01FE
00FE
007E
FCFE
F9FE
C3FE
C7F6
CFE2
CFC0
C790
C330
C030
C030
FFF0
FFF0
ENDCHAR
STARTCHAR 111
ENCODING 111
SWIDTH 1152 0
DWIDTH 16 0
BBX 16 10 0 3
BITMAP
07E0
1C38
318C
63C6
C663
C7E3
63C6
318C
1C38
07E0
ENDCHAR
STARTCHAR 112
ENCODING 112
SWIDTH 1152 0
DWIDTH 16 0
BBX 16 10 0 3
BITMAP
07E0
1FF8
3E7C
7C3E
F99F
F81F
7C3E
3E7C
1FF8
07E0
ENDCHAR
STARTCHAR 113
ENCODING 113
SWIDTH 1152 0
DWIDTH 16 0
BBX 16 16 0 0
BITMAP
FFFF
FFFF
FFFF
F8FF
F0FF
F3FF
F3FF
C0FF
C0FF
F3FF
F3FF
F3FF
F3FF
F3FF
F3FF
F3FF
ENDCHAR
STARTCHAR 114
ENCODING 114
SWIDTH 1152 0
DWIDTH 16 0
BBX 16 11 0 2
BITMAP
8207
E387
F3C7
FBF7
FFFF
FFFF
FFFF
FBF7
F3C7
E387
8207
ENDCHAR
STARTCHAR 115
ENCODING 115
SWIDTH 1152 0
DWIDTH 16 0
BBX 16 16 0 0
BITMAP
0C00
1380
2260
2630
2F10
1780
6BDC
75E6
FAF6
FDF6
7FE6
7FC6
3F86
0F06
061E
007F
ENDCHAR
STARTCHAR 116
ENCODING 116
SWIDTH 1152 0
DWIDTH 16 0
BBX 15 16 1 0
BITMAP
FFFE
7FFC
7FFC
3018
1830
1C70
0EE0
07C0
0380
0380
0380
0380
0380
0380
0180
0080
ENDCHAR
STARTCHAR 117
ENCODING 117
SWIDTH 1152 0
DWIDTH 16 0
BBX 11 16 3 0
BITMAP
0400
0400
1600
1F00
1F80
1F80
7FA0
7FE0
7F60
FEE0
FEE0
E9E0
A9E0
C4E0
C0E0
7380
ENDCHAR
STARTCHAR 118
ENCODING 118
SWIDTH 1152 0
DWIDTH 16 0
BBX 16 14 0 1
BITMAP
1C00
3F00
BF80
DFC0
6FF3
37FE
1B1E
0D00
0600
0300
0180
00C0
0060
0020
ENDCHAR
STARTCHAR 119
ENCODING 119
SWIDTH 1152 0
DWIDTH 16 0
BBX 16 16 0 0
BITMAP
0010
0038
1FFC
3FFE
3FFF
1FFE
4FFC
E600
7200
3800
1C00
0E00
0700
0380
01C0
00C0
ENDCHAR
STARTCHAR 120
ENCODING 120
SWIDTH 1152 0
DWIDTH 16 0
BBX 16 15 0 1
BITMAP
7C00
7C00
FFFF
FFFF
0000
0000
FFFF
FFFF
FFEF
FFE7
FF03
FFE7
FFEF
FFFF
FFFF
ENDCHAR
STARTCHAR 121
ENCODING 121
SWIDTH 1152 0
DWIDTH 16 0
BBX 16 15 0 1
BITMAP
7C00
7C00
FFFF
FFFF
0000
0000
FFFF
FFBB
FF11
FF83
FFC7
FF83
FF11
FFBB
FFFF
ENDCHAR
STARTCHAR 122
ENCODING 122
SWIDTH 1152 0
DWIDTH 16 0
BBX 16 15 0 1
BITMAP
7C00
7C00
FFFF
FFFF
0000
0000
FFFF
FFFF
FFFF
FFFF
FFFF
FFFF
FFFF
FFFF
FFFF
ENDCHAR
STARTCHAR 123
ENCODING 123
SWIDTH 1152 0
DWIDTH 16 0
BBX 16 15 0 1
BITMAP
7C00
7C00
FFFF
FFFF
0000
0000
FFFF
FFFF
FFFF
FF03
FF03
FFFF
FFFF
FFFF
FFFF
ENDCHAR
STARTCHAR 124
ENCODING 124
SWIDTH 1152 0
DWIDTH 16 0
BBX 16 15 0 1
BITMAP
7C00
7C00
FFF8
FFFC
8000
8000
9FFF
1FFF
3FFF
3FFE
3FFE
3FFE
7FFE
7FFC
7FFC
ENDCHAR
STARTCHAR 125
ENCODING 125
SWIDTH 1152 0
DWIDTH 16 0
BBX 16 15 0 1
BITMAP
7C00
7C00
FFFF
FFFF
0000
0000
FFFF
FFCF
FFCF
FF03
FF03
FFCF
FFCF
FFFF
FFFF
ENDCHAR
STARTCHAR 126
ENCODING 126
SWIDTH 1152 0
DWIDTH 16 0
BBX 11 14 3 1
BITMAP
FF00
FFC0
E1E0
E0E0
E0E0
E1C0
FF80
FFC0
E1E0
E0E0
E0E0
E1E0
FFC0
FF00
ENDCHAR
STARTCHAR 127
ENCODING 127
SWIDTH 1152 0
DWIDTH 16 0
BBX 6 14 5 1
BITMAP
1C
1C
18
00
38
38
38
78
70
70
70
70
F0
E0
ENDCHAR
STARTCHAR 128
ENCODING 128
SWIDTH 1152 0
DWIDTH 16 0
BBX 16 16 0 0
BITMAP
0700
0780
0F80
0F80
0CC0
1C80
1838
3838
3F78
3F6C
706C
60C6
E0FE
E0FE
0183
0183
ENDCHAR
STARTCHAR 129
ENCODING 129
SWIDTH 1152 0
DWIDTH 16 0
BBX 14 15 1 1
BITMAP
0FC0
1FF0
3C30
3000
3000
3000
FFFC
FFFC
01E0
0070
0070
0070
30E0
3FE0
0FC0
ENDCHAR
STARTCHAR 130
ENCODING 130
SWIDTH 1152 0
DWIDTH 16 0
BBX 11 16 3 0
BITMAP
E0E0
E0E0
E0E0
E0E0
E0E0
E0E0
E0E0
E0E0
E0E0
71C0
7FC0
1F00
0000
0000
FFE0
FFE0
ENDCHAR
STARTCHAR 131
ENCODING 131
SWIDTH 1152 0
DWIDTH 16 0
BBX 16 11 0 2
BITMAP
1C78
3FDC
7796
63F2
F7FF
FFCF
FFDF
FFFF
F00F
6006
4002
ENDCHAR
STARTCHAR 132
ENCODING 132
SWIDTH 1152 0
DWIDTH 16 0
BBX 16 10 0 3
BITMAP
0420
1E78
324C
6006
FFFF
FE7F
FE7F
FE7F
7E7E
3C3C
ENDCHAR
STARTCHAR 133
ENCODING 133
SWIDTH 1152 0
DWIDTH 16 0
BBX 16 16 0 0
BITMAP
07E0
1D70
311C
793E
4FE6
C383
C103
FFFF
C103
C103
C383
6FE6
793E
311C
1FF8
07E0
ENDCHAR
STARTCHAR 134
ENCODING 134
SWIDTH 1152 0
DWIDTH 16 0
BBX 16 16 0 0
BITMAP
07E0
1DF8
3E3C
6FBE
7FAE
DF1F
DC1F
D01F
CC1F
C41F
E707
6786
7B8E
3E3C
1FF8
07E0
ENDCHAR
STARTCHAR 135
ENCODING 135
SWIDTH 1152 0
DWIDTH 16 0
BBX 16 16 0 0
BITMAP
07E0
1FF8
31CC
7046
6052
E0EB
E3E1
EFE1
F3E1
FBE1
F8FB
787A
7C7E
3DFC
1FF8
07E0
ENDCHAR
STARTCHAR 136
ENCODING 136
SWIDTH 1152 0
DWIDTH 16 0
BBX 16 16 0 0
BITMAP
38FF
7CFF
7CFF
3CFF
3DFF
9BFF
E3FF
E3FF
F1FF
88FF
7C7F
FE7F
FF7F
FF7F
7EFF
01FF
ENDCHAR
STARTCHAR 137
ENCODING 137
SWIDTH 1152 0
DWIDTH 16 0
BBX 11 16 3 0
BITMAP
0600
0600
1F80
1F80
1FE0
DFE0
FFE0
7FE0
7FE0
7FE0
7FE0
7FE0
7FE0
3FC0
3FC0
0F00
ENDCHAR
STARTCHAR 138
ENCODING 138
SWIDTH 1152 0
DWIDTH 16 0
BBX 12 15 2 0
BITMAP
0C00
0C00
0C00
0C00
CC00
EF00
7FC0
3FF0
3FF0
3FF0
3FF0
3FF0
3FF0
1FE0
0780
ENDCHAR
STARTCHAR 139
ENCODING 139
SWIDTH 1152 0
DWIDTH 16 0
BBX 15 15 1 1
BITMAP
1FF8
FFFC
FFFC
FFFC
FFFE
FFFE
FFFE
7FFE
0FFC
07C0
03C0
01E0
00E0
00E0
0060
ENDCHAR
STARTCHAR 140
ENCODING 140
SWIDTH 1152 0
DWIDTH 16 0
BBX 15 15 1 0
BITMAP
0060
00E0
00E0
01E0
03C0
07C0
0FFC
7FFE
FFFE
FFFE
FFFE
FFFC
FFFC
FFFC
0FFC
ENDCHAR
STARTCHAR 141
ENCODING 141
SWIDTH 1152 0
DWIDTH 16 0
BBX 16 12 0 2
BITMAP
0180
0340
0200
0200
0180
0180
0660
1C38
700C
C007
8003
FFFF
ENDCHAR
STARTCHAR 142
ENCODING 142
SWIDTH 1152 0
DWIDTH 16 0
BBX 16 16 0 0
BITMAP
0FE0
1838
700E
4002
C002
8001
8001
8001
8001
B00D
700E
F00F
F00F
F00F
700C
300C
ENDCHAR
STARTCHAR 143
ENCODING 143
SWIDTH 1152 0
DWIDTH 16 0
BBX 16 16 0 0
BITMAP
3C78
7FFE
E3C6
C183
C083
C003
C003
E007
6006
700E
381C
1C38
0E70
07E0
03C0
0180
ENDCHAR
STARTCHAR 144
ENCODING 144
SWIDTH 1152 0
DWIDTH 16 0
BBX 16 16 0 0
BITMAP
3C3C
7FFE
FFFF
FFFF
FFFF
FFFF
FFFF
FFFF
7FFE
7FFE
3FFC
1FF8
0FF0
07E0
03C0
0180
ENDCHAR
STARTCHAR 145
ENCODING 145
SWIDTH 1152 0
DWIDTH 16 0
BBX 16 14 0 0
BITMAP
01D8
03F8
0FF8
1FF8
3FFC
7FFE
FFFF
7C3E
3C3C
3C3C
3C3C
3C3C
3C3C
3C3C
ENDCHAR
STARTCHAR 146
ENCODING 146
SWIDTH 1152 0
DWIDTH 16 0
BBX 16 15 0 0
BITMAP
FCFF
FCFF
FC00
FC00
FCFF
FCFF
0000
0000
0000
FCFF
FCFF
FC00
FC00
FCFF
FCFF
ENDCHAR
STARTCHAR 147
ENCODING 147
SWIDTH 1152 0
DWIDTH 16 0
BBX 16 16 0 0
BITMAP
3000
7800
FC00
FE20
7F6F
3FEF
1FE3
0FE3
07E3
0FE3
1FE3
0003
0C03
0C03
0FFF
0FFF
ENDCHAR
STARTCHAR 148
ENCODING 148
SWIDTH 1152 0
DWIDTH 16 0
BBX 16 11 0 3
BITMAP
0FF0
0810
300C
2004
4002
C003
F81F
F83F
FFFF
FFFF
FFFF
ENDCHAR
STARTCHAR 149
ENCODING 149
SWIDTH 1152 0
DWIDTH 16 0
BBX 16 15 0 0
BITMAP
07FF
07FF
07FF
0000
0000
2000
60FF
FCFF
60FF
2000
0000
0000
07FF
07FF
07FF
ENDCHAR
STARTCHAR 150
ENCODING 150
SWIDTH 1152 0
DWIDTH 16 0
BBX 16 15 0 0
BITMAP
07FF
07FF
07FF
0000
0000
1000
18FF
FCFF
18FF
1000
0000
0000
07FF
07FF
07FF
ENDCHAR
STARTCHAR 151
ENCODING 151
SWIDTH 1152 0
DWIDTH 16 0
BBX 15 15 1 0
BITMAP
07C0
1FF0
3EF8
7C7C
FEFC
FFFE
FFFE
FEFE
FC7E
FC7E
7C7C
7C7C
3EF8
1FE0
07C0
ENDCHAR
STARTCHAR 152
ENCODING 152
SWIDTH 1152 0
DWIDTH 16 0
BBX 11 15 3 0
BITMAP
FFE0
FFE0
FFE0
0000
0000
FFE0
7FC0
7FC0
3F80
3F80
1F00
1F00
0E00
0E00
0400
ENDCHAR
STARTCHAR 153
ENCODING 153
SWIDTH 1152 0
DWIDTH 16 0
BBX 16 12 0 2
BITMAP
0008
07CC
1C10
71AE
6246
C4A3
C563
62C6
341C
0B78
37E0
1000
ENDCHAR
STARTCHAR 154
ENCODING 154
SWIDTH 1152 0
DWIDTH 16 0
BBX 16 12 0 2
BITMAP
0008
07CC
1FD0
7E2E
7C5E
F88F
FD1F
7A3E
35FC
0BF0
37C0
1000
ENDCHAR
STARTCHAR 155
ENCODING 155
SWIDTH 1152 0
DWIDTH 16 0
BBX 9 16 4 0
BITMAP
FF80
FF80
FF80
8080
8080
8080
8080
8080
8080
8080
8080
8080
8080
FF80
F780
FF80
ENDCHAR
STARTCHAR 156
ENCODING 156
SWIDTH 1152 0
DWIDTH 16 0
BBX 16 16 0 0
BITMAP
00F8
01FE
03C6
03C7
03C7
07FF
03FF
07FE
0DFE
1BFC
3700
6E00
DC00
B800
F000
E000
ENDCHAR
STARTCHAR 157
ENCODING 157
SWIDTH 1152 0
DWIDTH 16 0
BBX 15 15 1 0
BITMAP
0380
0FE0
3FF8
FFFE
3FF8
07C0
2388
F83E
3EF8
07C0
2388
F83E
3EF8
0FE0
0380
ENDCHAR
STARTCHAR 158
ENCODING 158
SWIDTH 1152 0
DWIDTH 16 0
BBX 15 15 1 0
BITMAP
0380
0C60
3018
E00E
3830
0FC0
2108
F83E
3EF8
07C0
2388
F83E
3EF8
0FE0
0380
ENDCHAR
STARTCHAR 159
ENCODING 159
SWIDTH 1152 0
DWIDTH 16 0
BBX 13 16 2 0
BITMAP
0200
0000
2FA0
1FC0
3060
3060
B268
38E0
38C0
1DC0
2FA0
0F80
0880
0D80
0F80
0700
ENDCHAR
STARTCHAR 160
ENCODING 160
SWIDTH 1152 0
DWIDTH 16 0
BBX 9 16 4 0
BITMAP
1E00
3C00
3C00
3800
7800
7F80
7F00
FE00
0C00
1800
1800
3000
2000
4000
4000
8000
ENDCHAR
STARTCHAR 161
ENCODING 161
SWIDTH 1152 0
DWIDTH 16 0
BBX 16 16 0 0
BITMAP
0078
00FC
01CF
0387
0383
0163
1CE6
3DDE
73BC
E718
C6C0
C0C0
E1C0
7780
7F00
1E00
ENDCHAR
STARTCHAR 162
ENCODING 162
SWIDTH 1152 0
DWIDTH 16 0
BBX 16 15 0 0
BITMAP
E7FF
E7FF
E7FF
0000
0000
0000
E7FF
E7FF
E7FF
0000
0000
0000
E7FF
E7FF
E7FF
ENDCHAR
STARTCHAR 163
ENCODING 163
SWIDTH 1152 0
DWIDTH 16 0
BBX 16 16 0 0
BITMAP
4000
47FF
47FF
47FF
0000
0000
E000
27FF
47FF
E7FF
0000
0000
E000
47FF
27FF
E7FF
ENDCHAR
STARTCHAR 164
ENCODING 164
SWIDTH 1152 0
DWIDTH 16 0
BBX 15 15 1 0
BITMAP
0100
0910
0900
0D00
7504
1000
0000
F006
0000
1000
700C
0400
0920
1930
0100
ENDCHAR
STARTCHAR 165
ENCODING 165
SWIDTH 1152 0
DWIDTH 16 0
BBX 11 16 3 0
BITMAP
0F00
1FC0
38C0
3060
7060
00E0
00C0
01C0
FFE0
FFE0
FFE0
F3E0
FBE0
FBE0
FFE0
FFE0
ENDCHAR
STARTCHAR 166
ENCODING 166
SWIDTH 1152 0
DWIDTH 16 0
BBX 12 16 2 0
BITMAP
0120
0140
0180
0FF0
0180
0280
0280
0400
0C00
1800
1800
3000
7000
6000
C000
C000
ENDCHAR
STARTCHAR 167
ENCODING 167
SWIDTH 1152 0
DWIDTH 16 0
BBX 15 15 0 0
BITMAP
0080
0084
0CD8
0EF8
07F0
0638
7EBE
0F20
07F0
0FB8
1D98
3880
7080
E080
C000
ENDCHAR
STARTCHAR 168
ENCODING 168
SWIDTH 1152 0
DWIDTH 16 0
BBX 16 12 0 2
BITMAP
FFFF
BFFD
DFFB
E7E7
FBDF
FDBF
FE7F
F7EF
EFF7
DFFB
BFFD
FFFF
ENDCHAR
STARTCHAR 169
ENCODING 169
SWIDTH 1152 0
DWIDTH 16 0
BBX 16 12 0 2
BITMAP
7FFE
FFFF
E007
D81B
C423
C243
C183
C003
C003
C003
FFFF
7FFE
ENDCHAR
STARTCHAR 170
ENCODING 170
SWIDTH 1152 0
DWIDTH 16 0
BBX 15 16 0 0
BITMAP
FFFE
FC7E
FC7E
FC7E
FC7E
FC7E
FEFE
FFFE
FC7E
FC7E
FEFE
FFFE
01F8
0078
0018
0008
ENDCHAR
STARTCHAR 171
ENCODING 171
SWIDTH 1152 0
DWIDTH 16 0
BBX 10 16 3 0
BITMAP
1E00
3F00
3F00
3F00
BF40
BF40
BF40
BF40
BE40
9E40
6180
3F00
0C00
0C00
3F00
3F00
ENDCHAR
STARTCHAR 172
ENCODING 172
SWIDTH 1152 0
DWIDTH 16 0
BBX 11 16 2 0
BITMAP
0E00
1F00
0400
1F00
0400
1F00
0400
DF60
DF60
4E40
4040
60C0
3180
3F80
0E00
0E00
ENDCHAR
STARTCHAR 173
ENCODING 173
SWIDTH 1152 0
DWIDTH 16 0
BBX 16 13 0 1
BITMAP
203C
39FF
3E3F
3DBF
BD1F
BEDF
BE3F
BFE3
9F00
C078
E3FC
7F9C
3C04
ENDCHAR
STARTCHAR 174
ENCODING 174
SWIDTH 1152 0
DWIDTH 16 0
BBX 16 14 0 1
BITMAP
FFFF
FFFF
C003
C003
C003
C003
C003
C003
C003
C003
FFFF
FFFF
07E0
0FF0
ENDCHAR
STARTCHAR 175
ENCODING 175
SWIDTH 1152 0
DWIDTH 16 0
BBX 16 16 0 0
BITMAP
03C0
0FF0
3E7C
3C3C
7C3E
7E7E
E7E7
C243
C243
E7E7
7E7E
7C3E
3C3C
3E7C
0FFF
03C7
ENDCHAR
STARTCHAR 176
ENCODING 176
SWIDTH 1152 0
DWIDTH 16 0
BBX 16 15 0 0
BITMAP
003F
07FF
07FD
07C1
0401
0401
0401
0401
0401
0405
141F
7C3F
FC3F
FC1E
7800
ENDCHAR
STARTCHAR 177
ENCODING 177
SWIDTH 1152 0
DWIDTH 16 0
BBX 15 15 0 0
BITMAP
7FFC
FFFE
FEFE
FE7E
FEBE
FEDE
FEEE
FEEE
FEEE
F2DE
E0FE
E0FE
F1FE
FFFE
7FFC
ENDCHAR
STARTCHAR 178
ENCODING 178
SWIDTH 1152 0
DWIDTH 16 0
BBX 16 16 0 0
BITMAP
3FFC
3FFC
300C
300C
300C
300C
300C
3FFC
3FFC
02C0
07E0
FC3F
8421
FC3F
FC3F
07E0
ENDCHAR
STARTCHAR 179
ENCODING 179
SWIDTH 1152 0
DWIDTH 16 0
BBX 16 12 0 2
BITMAP
03C0
02C0
02C0
02C0
02C0
02C0
07E0
FC3F
8421
FC3F
FC3F
07E0
ENDCHAR
STARTCHAR 180
ENCODING 180
SWIDTH 1152 0
DWIDTH 16 0
BBX 16 16 0 0
BITMAP
000C
019C
03F8
03F0
01F0
00F8
3000
787C
7CC6
3D8F
3D1D
7D39
E571
C1E3
00C6
007C
ENDCHAR
STARTCHAR 181
ENCODING 181
SWIDTH 1152 0
DWIDTH 16 0
BBX 16 16 0 0
BITMAP
1FFE
3001
F001
93F9
F001
3001
F3F9
9001
F001
33F9
F001
9001
F3F9
3001
3003
1FFE
ENDCHAR
STARTCHAR 182
ENCODING 182
SWIDTH 1152 0
DWIDTH 16 0
BBX 16 16 0 0
BITMAP
1FFE
3FFF
FFFF
9803
FFFF
3FFF
F803
9FFF
FFFF
3FFF
FFFF
9FFF
FFFF
3FFF
3FFF
1FFE
ENDCHAR
STARTCHAR 183
ENCODING 183
SWIDTH 1152 0
DWIDTH 16 0
BBX 16 13 0 1
BITMAP
FFFF
8001
8001
8001
99DD
A511
A5DD
A511
9911
8001
8001
8001
FFFF
ENDCHAR
STARTCHAR 184
ENCODING 184
SWIDTH 1152 0
DWIDTH 16 0
BBX 16 13 0 1
BITMAP
FFFF
FFFF
FFFF
C199
9C89
9C89
9C81
9C91
9C99
C199
FFFF
FFFF
FFFF
ENDCHAR
STARTCHAR 185
ENCODING 185
SWIDTH 1152 0
DWIDTH 16 0
BBX 15 16 1 0
BITMAP
0380
0380
1BB0
3BB8
739C
E38C
C386
C386
C386
C006
E00E
600C
701C
3C78
1FF0
0FE0
ENDCHAR
STARTCHAR 186
ENCODING 186
SWIDTH 1152 0
DWIDTH 16 0
BBX 15 14 1 1
BITMAP
0080
0180
0180
0180
05B2
3D9E
7186
C18E
C180
C180
E180
7180
3F80
0F00
ENDCHAR
STARTCHAR 187
ENCODING 187
SWIDTH 1152 0
DWIDTH 16 0
BBX 11 15 3 0
BITMAP
1F00
3180
71C0
60C0
60C0
60C0
60C0
FFE0
FBE0
F1E0
FBE0
FBE0
F1E0
FFE0
FFE0
ENDCHAR
STARTCHAR 188
ENCODING 188
SWIDTH 1152 0
DWIDTH 16 0
BBX 16 15 0 0
BITMAP
0078
00DE
01C7
0103
0183
0183
0183
FFE0
FFE0
FBE0
F1E0
FBE0
FBE0
FFE0
FFE0
ENDCHAR
STARTCHAR 189
ENCODING 189
SWIDTH 1152 0
DWIDTH 16 0
BBX 16 16 0 0
BITMAP
7FFE
FFFF
C003
C003
CFF3
CFF3
C003
C003
CCF3
CCF3
CCF3
CCF3
C003
C003
FFFF
7FFE
ENDCHAR
STARTCHAR 190
ENCODING 190
SWIDTH 1152 0
DWIDTH 16 0
BBX 15 13 1 2
BITMAP
0006
001E
0074
01EC
07DC
1FB8
7F78
FEF8
3DF8
0BF0
03F0
0210
0200
ENDCHAR
STARTCHAR 191
ENCODING 191
SWIDTH 1152 0
DWIDTH 16 0
BBX 11 16 3 0
BITMAP
7FE0
FFC0
F980
F980
F980
F980
7980
1980
1980
1980
1980
1980
1980
1980
1980
1980
ENDCHAR
STARTCHAR 192
ENCODING 192
SWIDTH 1152 0
DWIDTH 16 0
BBX 16 16 0 0
BITMAP
0038
007C
00EE
01C7
03E3
07F7
0FFE
1FFC
3FF8
7FF0
7FE0
5FC0
5F80
C700
FE00
E000
ENDCHAR
STARTCHAR 193
ENCODING 193
SWIDTH 1152 0
DWIDTH 16 0
BBX 14 14 1 1
BITMAP
00F0
03FC
07FC
0FFC
1E38
3C00
7800
7000
F000
F000
F800
F800
F800
7000
ENDCHAR
STARTCHAR 194
ENCODING 194
SWIDTH 1152 0
DWIDTH 16 0
BBX 14 14 1 1
BITMAP
7000
F000
F800
F800
F800
7000
7000
7800
3C00
1E70
0FFC
07FC
03FC
0070
ENDCHAR
STARTCHAR 195
ENCODING 195
SWIDTH 1152 0
DWIDTH 16 0
BBX 7 16 5 0
BITMAP
FE
82
82
82
82
82
82
82
FE
AA
FE
AA
FE
AA
FE
FE
ENDCHAR
STARTCHAR 196
ENCODING 196
SWIDTH 1152 0
DWIDTH 16 0
BBX 11 16 3 0
BITMAP
7FC0
FFE0
C060
C060
C060
C060
C060
C060
C060
C060
C060
FFE0
FFE0
F3E0
7FC0
3F00
ENDCHAR
STARTCHAR 197
ENCODING 197
SWIDTH 1152 0
DWIDTH 16 0
BBX 16 12 0 2
BITMAP
01F8
0108
FFFF
EB9F
EE07
EE07
EC03
EC03
EE07
EE07
FF9F
FFFF
ENDCHAR
STARTCHAR 198
ENCODING 198
SWIDTH 1152 0
DWIDTH 16 0
BBX 16 15 0 1
BITMAP
FFFF
FFFF
C003
C803
D003
D803
DC03
C063
C073
C0FB
D9FB
DFFF
FFFF
FFFF
FFFF
ENDCHAR
STARTCHAR 199
ENCODING 199
SWIDTH 1152 0
DWIDTH 16 0
BBX 13 16 1 0
BITMAP
0F80
3FE0
7FF0
7FF0
FFF8
FFF8
FFF8
FFF8
FFF8
7FF0
7FF0
3FE0
0F80
0700
0200
0200
ENDCHAR
STARTCHAR 200
ENCODING 200
SWIDTH 1152 0
DWIDTH 16 0
BBX 16 16 0 0
BITMAP
01F0
07FC
0FFE
0FFE
1FFF
1FFF
1FFF
1FFF
1FFF
0FFE
1FFE
3FFC
7DE0
7800
F000
C000
ENDCHAR
STARTCHAR 201
ENCODING 201
SWIDTH 1152 0
DWIDTH 16 0
BBX 13 16 1 0
BITMAP
0F80
3FE0
7FF0
7FF0
FFF8
FFF8
FFF8
FFF8
FFF8
7FF0
7FF0
3FE0
1FC0
0F80
0700
0200
ENDCHAR
STARTCHAR 202
ENCODING 202
SWIDTH 1152 0
DWIDTH 16 0
BBX 13 16 1 0
BITMAP
0F80
3FE0
7FF0
7FF0
F8F8
F078
F078
F078
F8F0
7FF0
7FF0
3FC0
1FC0
0F00
0700
0200
ENDCHAR
STARTCHAR 203
ENCODING 203
SWIDTH 1152 0
DWIDTH 16 0
BBX 16 13 0 2
BITMAP
01F8
07FC
0FFE
1FFF
3FFF
7FFF
FFFF
7FFF
3FFF
1FFF
0FFE
07FC
01F8
ENDCHAR
STARTCHAR 204
ENCODING 204
SWIDTH 1152 0
DWIDTH 16 0
BBX 16 13 0 2
BITMAP
0F80
3FE0
7FF0
7FF8
FFFC
FFFE
FFFF
FFFE
FFFC
7FF8
7FF0
3FE0
0F80
ENDCHAR
STARTCHAR 205
ENCODING 205
SWIDTH 1152 0
DWIDTH 16 0
BBX 13 16 1 0
BITMAP
0200
0700
0F80
1FC0
3FE0
7FF0
FFF8
FFF8
FFF8
FFF8
FFF8
FFF8
7FF0
3FE0
3FE0
0F80
ENDCHAR
STARTCHAR 206
ENCODING 206
SWIDTH 1152 0
DWIDTH 16 0
BBX 13 16 1 0
BITMAP
7FF0
FFF8
FFF8
FFF8
FFF8
FFF8
FFF8
FFF8
FFF8
FFF8
7FF0
7FF0
3FC0
0F80
0700
0200
ENDCHAR
STARTCHAR 207
ENCODING 207
SWIDTH 1152 0
DWIDTH 16 0
BBX 16 13 0 2
BITMAP
07FE
0FFF
1FFF
3FFF
3FFF
7FFF
FFFF
7FFF
3FFF
3FFF
1FFF
0FFF
07FE
ENDCHAR
STARTCHAR 208
ENCODING 208
SWIDTH 1152 0
DWIDTH 16 0
BBX 16 13 0 2
BITMAP
7FC0
FFF0
FFF0
FFFC
FFFC
FFFE
FFFF
FFFE
FFFC
FFFC
FFF0
FFF0
7FC0
ENDCHAR
STARTCHAR 209
ENCODING 209
SWIDTH 1152 0
DWIDTH 16 0
BBX 13 16 1 0
BITMAP
0200
0700
1FC0
3FE0
7FF0
FFF8
FFF8
FFF8
FFF8
FFF8
FFF8
FFF8
FFF8
FFF8
FFF8
7FF0
ENDCHAR
STARTCHAR 210
ENCODING 210
SWIDTH 1152 0
DWIDTH 16 0
BBX 12 11 2 3
BITMAP
8400
C700
F780
FFC0
FFE0
FFF0
FFE0
FFC0
F780
C700
8400
ENDCHAR
STARTCHAR 211
ENCODING 211
SWIDTH 1152 0
DWIDTH 16 0
BBX 11 11 3 3
BITMAP
C1E0
E1E0
F1E0
F9E0
FDE0
FFE0
FDE0
F9E0
F1E0
E1E0
C1E0
ENDCHAR
STARTCHAR 212
ENCODING 212
SWIDTH 1152 0
DWIDTH 16 0
BBX 11 10 3 3
BITMAP
F1E0
F1E0
F1E0
F1E0
F1E0
F1E0
F1E0
F1E0
F1E0
F1E0
ENDCHAR
STARTCHAR 213
ENCODING 213
SWIDTH 1152 0
DWIDTH 16 0
BBX 10 11 3 3
BITMAP
8000
E000
F800
FE00
FF80
FFC0
FF80
FE00
F800
E000
8000
ENDCHAR
STARTCHAR 214
ENCODING 214
SWIDTH 1152 0
DWIDTH 16 0
BBX 11 11 3 3
BITMAP
F060
F0E0
F1E0
F3E0
F7E0
FFE0
F7E0
F3E0
F1E0
F0E0
F060
ENDCHAR
STARTCHAR 215
ENCODING 215
SWIDTH 1152 0
DWIDTH 16 0
BBX 10 10 3 3
BITMAP
1E00
7F80
7F80
FFC0
FFC0
FFC0
FFC0
7FC0
7F80
1E00
ENDCHAR
STARTCHAR 216
ENCODING 216
SWIDTH 1152 0
DWIDTH 16 0
BBX 16 16 0 0
BITMAP
07F1
0FFB
3FFF
383F
703F
F07F
E0FF
E000
E000
E000
700E
780F
7C3E
3FFC
0FF8
07E0
ENDCHAR
STARTCHAR 217
ENCODING 217
SWIDTH 1152 0
DWIDTH 16 0
BBX 12 11 2 3
BITMAP
0210
0630
1E70
3EF0
7FF0
FFF0
7FF0
3EF0
1E70
0630
0210
ENDCHAR
STARTCHAR 218
ENCODING 218
SWIDTH 1152 0
DWIDTH 16 0
BBX 10 10 3 3
BITMAP
FFC0
FFC0
FFC0
FFC0
FFC0
FFC0
FFC0
FFC0
FFC0
FFC0
ENDCHAR
STARTCHAR 219
ENCODING 219
SWIDTH 1152 0
DWIDTH 16 0
BBX 15 16 0 0
BITMAP
07C0
1830
2008
46C4
4824
9012
9392
0380
8382
0000
0380
07C0
07C0
0380
0380
0380
ENDCHAR
STARTCHAR 220
ENCODING 220
SWIDTH 1152 0
DWIDTH 16 0
BBX 15 16 1 0
BITMAP
7FFC
FFFE
8002
8002
8002
8002
8002
8002
8002
8002
8002
FFFE
7FFC
0380
0540
0920
ENDCHAR
STARTCHAR 221
ENCODING 221
SWIDTH 1152 0
DWIDTH 16 0
BBX 16 16 0 0
BITMAP
1FF8
1008
1008
1008
700E
F00F
FFFB
FFF1
FFFB
FFFF
FFFF
9009
9009
F7EF
1008
1FF8
ENDCHAR
STARTCHAR 222
ENCODING 222
SWIDTH 1152 0
DWIDTH 16 0
BBX 16 16 0 0
BITMAP
0200
0600
0E00
1F00
3F80
7FF0
FF38
1F70
0EE0
0780
07B0
0638
0218
0004
0006
0001
ENDCHAR
STARTCHAR 223
ENCODING 223
SWIDTH 1152 0
DWIDTH 16 0
BBX 16 11 0 2
BITMAP
07C1
1FF3
1FFF
3FFF
787F
703F
607F
E0FF
C000
8000
8000
ENDCHAR
STARTCHAR 224
ENCODING 224
SWIDTH 1152 0
DWIDTH 16 0
BBX 14 16 1 0
BITMAP
07C0
1FF4
7C7C
703C
E0FC
C03C
C00C
0000
0000
C00C
F00C
FC1C
F038
F8F0
BFE0
0F80
ENDCHAR
STARTCHAR 225
ENCODING 225
SWIDTH 1152 0
DWIDTH 16 0
BBX 14 14 1 1
BITMAP
0F80
1FF4
787C
603C
C0FC
C03C
C004
C000
C000
E01C
7038
3870
3FE0
0FC0
ENDCHAR
STARTCHAR 226
ENCODING 226
SWIDTH 1152 0
DWIDTH 16 0
BBX 16 11 0 2
BITMAP
E0C3
E1C7
E3CF
E7DF
EFFF
FFFF
EFFF
E7DF
E3CF
E1C7
E0C3
ENDCHAR
STARTCHAR 227
ENCODING 227
SWIDTH 1152 0
DWIDTH 16 0
BBX 15 15 1 0
BITMAP
07C0
1FF0
3FF8
7FFC
7FFC
FFFE
E7CE
F39E
F93E
FC7E
7EFC
7FFC
3FF8
1FF0
07C0
ENDCHAR
STARTCHAR 228
ENCODING 228
SWIDTH 1152 0
DWIDTH 16 0
BBX 15 15 1 0
BITMAP
07C0
1FF0
3FF8
67DC
679C
E73E
E67E
E4FE
E67E
E73E
679C
67DC
3FF8
1FF0
07C0
ENDCHAR
STARTCHAR 229
ENCODING 229
SWIDTH 1152 0
DWIDTH 16 0
BBX 15 15 1 0
BITMAP
07C0
1FF0
3FF8
77CC
73CC
F9CE
FCCE
FE4E
FCCE
F9CE
73CC
77CC
3FF8
1FF0
07C0
ENDCHAR
STARTCHAR 230
ENCODING 230
SWIDTH 1152 0
DWIDTH 16 0
BBX 15 15 1 0
BITMAP
07C0
1FF0
3FF8
7DFC
7CFC
FE7E
FF3E
FF9E
FF3E
FE7E
7CFC
7DFC
3FF8
1FF0
07C0
ENDCHAR
STARTCHAR 231
ENCODING 231
SWIDTH 1152 0
DWIDTH 16 0
BBX 15 15 1 0
BITMAP
07C0
1FF0
3FF8
7F7C
7E7C
FCFE
F9FE
F3FE
F9FE
FCFE
7E7C
7F7C
3FF8
1FF0
07C0
ENDCHAR
STARTCHAR 232
ENCODING 232
SWIDTH 1152 0
DWIDTH 16 0
BBX 15 15 1 0
BITMAP
07C0
1FF0
3FF8
7FFC
7EFC
FC7E
F93E
F39E
E7CE
FFFE
7FFC
7FFC
3FF8
1FF0
07C0
ENDCHAR
STARTCHAR 233
ENCODING 233
SWIDTH 1152 0
DWIDTH 16 0
BBX 16 16 0 0
BITMAP
07F0
1FF0
3FFC
7FFE
79FE
F0FF
F0FF
E07F
C03F
F0FF
F0FE
78FE
7838
3C00
1F18
07E0
ENDCHAR
STARTCHAR 234
ENCODING 234
SWIDTH 1152 0
DWIDTH 16 0
BBX 15 15 1 0
BITMAP
07C0
1FF0
3FF8
7DFC
79FC
F1FE
E00E
C00E
E00E
F1FE
79FC
7DFC
3FF8
1FF0
07C0
ENDCHAR
STARTCHAR 235
ENCODING 235
SWIDTH 1152 0
DWIDTH 16 0
BBX 15 15 1 0
BITMAP
07C0
1FF0
3FF8
7F7C
7F3C
FF1E
E00E
E006
E00E
FF1E
7F3C
7F7C
3FF8
1FF0
07C0
ENDCHAR
STARTCHAR 236
ENCODING 236
SWIDTH 1152 0
DWIDTH 16 0
BBX 15 15 1 0
BITMAP
07C0
1FF0
3FF8
7FFC
7FDC
FF8E
F71E
E23E
F07E
F8FE
7DFC
7FFC
3FF8
1FF0
07C0
ENDCHAR
STARTCHAR 237
ENCODING 237
SWIDTH 1152 0
DWIDTH 16 0
BBX 15 15 1 0
BITMAP
07C0
1FF0
3FF8
739C
610C
F01E
F83E
FC7E
F83E
F01E
610C
739C
3FF8
1FF0
07C0
ENDCHAR
STARTCHAR 238
ENCODING 238
SWIDTH 1152 0
DWIDTH 16 0
BBX 15 15 1 0
BITMAP
07C0
1FF0
3FF8
7FFC
7FFC
FFFE
FFFE
FFFE
FFFE
FFFE
7FFC
7FFC
3FF8
1FF0
07C0
ENDCHAR
STARTCHAR 239
ENCODING 239
SWIDTH 1152 0
DWIDTH 16 0
BBX 15 15 1 0
BITMAP
07C0
1FF0
3FF8
7FFC
7FFC
FFFE
E00E
E00E
E00E
FFFE
7FFC
7FFC
3FF8
1FF0
07C0
ENDCHAR
STARTCHAR 240
ENCODING 240
SWIDTH 1152 0
DWIDTH 16 0
BBX 15 15 1 0
BITMAP
07C0
1FF0
3FF8
7C7C
7C7C
FC7E
E00E
E00E
E00E
FC7E
7C7C
7C7C
3FF8
1FF0
07C0
ENDCHAR
STARTCHAR 241
ENCODING 241
SWIDTH 1152 0
DWIDTH 16 0
BBX 15 15 1 1
BITMAP
F800
FF00
3FC0
03E0
00F0
F078
FC38
FE1C
0F1C
078C
038E
C1CE
E1CE
F1CE
F1CE
ENDCHAR
STARTCHAR 242
ENCODING 242
SWIDTH 1152 0
DWIDTH 16 0
BBX 15 15 1 1
BITMAP
7FFC
FFFE
E3FE
E07E
FE3E
FF1E
E38E
E1CE
FCEE
FE66
EE66
C666
EFFE
FFFE
7FFC
ENDCHAR
STARTCHAR 243
ENCODING 243
SWIDTH 1152 0
DWIDTH 16 0
BBX 11 16 3 0
BITMAP
FFE0
C060
C060
C060
6EE0
75C0
3B80
1F00
1F00
3B80
71C0
EEE0
DFE0
C060
FFE0
FFE0
ENDCHAR
STARTCHAR 244
ENCODING 244
SWIDTH 1152 0
DWIDTH 16 0
BBX 16 16 0 0
BITMAP
E010
A0FC
E3FE
3BFF
0DFF
14FF
377F
3B3F
7CBE
7F7E
FFFC
FFF8
FFF0
7FE0
3FC0
1F00
ENDCHAR
STARTCHAR 245
ENCODING 245
SWIDTH 1152 0
DWIDTH 16 0
BBX 16 16 0 0
BITMAP
FFFE
DF37
DF33
DF33
DF33
DF33
DFF3
C003
C003
C003
C003
C003
C003
C003
FFFF
FFFF
ENDCHAR
STARTCHAR 246
ENCODING 246
SWIDTH 1152 0
DWIDTH 16 0
BBX 9 16 4 0
BITMAP
FF80
FF80
C180
C180
FF80
F980
F980
FF80
FF80
FF80
FF80
FF80
FF80
C180
FF80
FF80
ENDCHAR
STARTCHAR 247
ENCODING 247
SWIDTH 1152 0
DWIDTH 16 0
BBX 16 16 0 0
BITMAP
FFE0
FFE0
FFE0
FFE0
FE00
F8F8
FBFC
FBFE
F7FF
F7FF
F7FF
07FF
07FE
03FE
01FC
00F0
ENDCHAR
STARTCHAR 248
ENCODING 248
SWIDTH 1152 0
DWIDTH 16 0
BBX 14 16 1 0
BITMAP
FC7C
F83C
F01C
F83C
B874
1860
1860
1CE0
1FE0
0FC0
1CE0
1860
1860
1CE0
0FC0
0780
ENDCHAR
STARTCHAR 249
ENCODING 249
SWIDTH 1152 0
DWIDTH 16 0
BBX 16 16 0 0
BITMAP
FFFF
FFFF
FFC3
FFC3
FF83
FF43
C2FF
C1FF
C2FF
C37F
FF83
FFC3
FFC3
FFC3
FFFF
FFFF
ENDCHAR
STARTCHAR 250
ENCODING 250
SWIDTH 1152 0
DWIDTH 16 0
BBX 14 16 1 0
BITMAP
7FF8
FFFC
E00C
DFEC
DFEC
DFEC
DFEC
DFEC
DFEC
DFEC
6FD8
77B8
3B70
1CE0
0780
0300
ENDCHAR
STARTCHAR 251
ENCODING 251
SWIDTH 1152 0
DWIDTH 16 0
BBX 14 16 1 0
BITMAP
7FF8
800C
BFC4
BFC4
BF14
BF34
BC74
BCF4
B9F4
B3F4
47E8
6FD8
37B0
1B60
0480
0300
ENDCHAR
STARTCHAR 252
ENCODING 252
SWIDTH 1152 0
DWIDTH 16 0
BBX 16 15 0 0
BITMAP
F000
B800
1800
1AAB
0C03
0D56
0C06
0CA6
060C
07FC
07FC
0000
071C
071C
071C
ENDCHAR
STARTCHAR 253
ENCODING 253
SWIDTH 1152 0
DWIDTH 16 0
BBX 16 16 0 0
BITMAP
0380
06C0
0C60
0820
7FFE
7DFE
707A
F77B
F7FB
F9FB
FEF7
FF77
F777
F0F7
FDF1
FFFF
ENDCHAR
STARTCHAR 254
ENCODING 254
SWIDTH 1152 0
DWIDTH 16 0
BBX 16 16 0 0
BITMAP
0380
06C0
0C60
0820
7FFE
7FFE
7FFA
FFFB
FFFB
FFFB
FFF7
FFF7
FFF7
FFF7
FFF1
FFFF
ENDCHAR
STARTCHAR 255
ENCODING 255
SWIDTH 1152 0
DWIDTH 16 0
BBX 16 15 0 0
BITMAP
0008
001C
000E
0666
0E63
FE33
FE33
FE33
FE33
FE33
0E63
0666
000E
001C
0008
ENDCHAR
ENDFONT
